<svg xmlns="http://www.w3.org/2000/svg" viewBox="0 0 154.87 258.98"><defs><style>.cls-1{isolation:isolate;}.cls-2{fill:#aa4a43;}.cls-3{fill:#ee7668;}.cls-4{fill:#5e8685;}.cls-5{fill:#ffd38e;}.cls-6{opacity:0.27;}.cls-15,.cls-6,.cls-8{mix-blend-mode:multiply;}.cls-7{fill:#d6635b;}.cls-8{opacity:0.12;}.cls-9{fill:#933f3d;}.cls-10{fill:#f3debf;}.cls-11{fill:#4e5f97;}.cls-12{fill:#3f5177;}.cls-13{fill:#d371ab;}.cls-14{fill:#5e77bc;}.cls-15{opacity:0.16;}</style></defs><title>Ativo 1</title><g class="cls-1"><g id="Camada_2" data-name="Camada 2"><g id="OBJECTS"><path class="cls-2" d="M30.25,140.71C21.66,139.24,14.42,133,10,125.55a41.8,41.8,0,0,1,9.57-53.89c2.84-2.29,6-4.25,8.31-7.07,6.23-7.61,4.45-18.68,5.79-28.42C36,18.84,50.37,3.84,67.57.71A48.5,48.5,0,0,1,80.64.23,56.8,56.8,0,0,1,98,4.7c4.89,2.13,8.73,5,13.88,6.11,9.77,2.08,18.38,8.49,22.07,18a45.58,45.58,0,0,1,2.58,14.9,108.45,108.45,0,0,1-.67,16.71c-.48,4-1.18,8.07-.6,12.08,1.52,10.48,11.17,17.68,16.07,27.08a31.85,31.85,0,0,1-13.57,43"/><path class="cls-3" d="M68.21,103l-3.3,23.28s-35.38-6-43.95,16.18S84.1,191.74,84.1,191.74l27.68-10.68,11-1s18.16-39.42-36.2-51.11l1-27.61Z"/><path class="cls-4" d="M93,130.51A29.08,29.08,0,0,1,75.81,135a25.25,25.25,0,0,1-17.6-9.39c-10.69-.53-31,.71-37.25,16.84-8.57,22.23,63.14,49.28,63.14,49.28l27.68-10.68,11-1S139.45,143.82,93,130.51Z"/><path class="cls-5" d="M94.39,187.77l6.74-2.6A172.47,172.47,0,0,0,103,139c-.16-1.71-.36-3.44-.62-5.16q-2.55-1.11-5.47-2.12A137,137,0,0,1,94.39,187.77Z"/><path class="cls-5" d="M48.51,125.79a169.24,169.24,0,0,0-14.24,39.9c2,1.55,4.21,3.08,6.48,4.55A91.55,91.55,0,0,1,54,125.53C52.27,125.54,50.42,125.62,48.51,125.79Z"/><g class="cls-6"><path class="cls-3" d="M87.54,101.3,68.21,103l-2.59,18.26c1.52.34,3,.61,4.56.82a83.89,83.89,0,0,0,16.61.66Z"/></g><path class="cls-7" d="M43.33,63.39c-1.74-2.93-6-3.71-9-2.12s-4.75,5-5,8.4a18.51,18.51,0,0,0,4.3,13.15c3.55,4.07,6.77,4.74,12.12,4.8"/><path class="cls-2" d="M32.88,66.18A21.81,21.81,0,0,1,43.79,82.41c.08.64,1.08.64,1,0a22.88,22.88,0,0,0-11.4-17.09c-.56-.32-1.07.55-.51.86Z"/><path class="cls-2" d="M37.77,70.43a9.94,9.94,0,0,0,4.11,10.39c.53.37,1-.5.5-.86a8.89,8.89,0,0,1-3.64-9.26c.14-.63-.83-.9-1-.27Z"/><path class="cls-7" d="M119.84,73.67c2.33-2.48,6.66-2.33,9.26-.13s3.57,5.91,3.1,9.28a18.47,18.47,0,0,1-7,11.92c-4.34,3.22-7.63,3.18-12.87,2.09"/><path class="cls-2" d="M129.15,77.69a22.84,22.84,0,0,0-14.82,14.23c-.21.61.75.86,1,.26a21.83,21.83,0,0,1,14.12-13.53c.61-.19.35-1.15-.27-1Z"/><path class="cls-2" d="M122.75,81.77a8.86,8.86,0,0,1-5.53,8.28c-.59.24-.33,1.21.27,1a9.9,9.9,0,0,0,6.26-9.24.5.5,0,0,0-1,0Z"/><path class="cls-3" d="M117,88.16c.67-1.67,1.29-3.31,1.87-4.84,4.69-12.47,8-26.1,7.58-39.71C126.05,32.78,115.6,21,105.66,17.26c-8.32-3.11-17.81-3.36-26.59-3-8,.32-16.21,2.45-22.88,7-12.13,8.3-14.46,24.26-14.6,37.86-.16,15.21,1.25,39.46,17.14,46.7,10.15,4.62,22.1,6.72,33.14,4.72a33.1,33.1,0,0,0,15.3-6.73C111.64,100.12,114.64,93.93,117,88.16Z"/><path class="cls-2" d="M80.18,69c-3.27-1.3-7.68-1.55-8.48,2.78-.65,3.48,2.43,6.59,5.5,7.5a.5.5,0,0,0,.27-1,6.72,6.72,0,0,1-4.7-4.73,3.49,3.49,0,0,1,2.61-4.47c1.5-.4,3.16.3,4.53.84.6.24.86-.73.27-1Z"/><path class="cls-2" d="M72.1,81.43a7.21,7.21,0,0,0,13.12-1.35c.22-.61-.75-.87-1-.26A6.2,6.2,0,0,1,73,80.92a.5.5,0,0,0-.87.51Z"/><g class="cls-8"><path class="cls-3" d="M62,88.91c2.23-.78,5-3.12,4.54-5.83-.94-5.52-12-7.28-15.24-3.31s1.1,8.11,5,9.15A9.71,9.71,0,0,0,62,88.91Z"/></g><g class="cls-8"><path class="cls-3" d="M101.94,91.87c2.14-1,4.64-3.63,3.91-6.27-1.51-5.39-12.68-6-15.5-1.7s1.94,7.95,6,8.57A9.79,9.79,0,0,0,101.94,91.87Z"/></g><path class="cls-2" d="M63.8,67.65C63.57,70.72,62.3,73.13,61,73s-2.22-2.68-2-5.75,1.5-5.47,2.82-5.37S64,64.58,63.8,67.65Z"/><path class="cls-2" d="M97.68,70.75c-.23,3.07-1.5,5.48-2.83,5.38s-2.21-2.68-2-5.75S94.37,64.9,95.7,65,97.91,67.68,97.68,70.75Z"/><path class="cls-9" d="M64.76,46.19a16.42,16.42,0,0,0-10.19,2,6,6,0,0,0-3.14,3.72c-.44,2.41,2.2,3,4.15,3a29.66,29.66,0,0,0,9.22-1.48c3.15-1.15,5.25-5.53,1.09-6.87A9.83,9.83,0,0,0,64.76,46.19Z"/><path class="cls-9" d="M92.87,48A16.33,16.33,0,0,1,103,50.14a6,6,0,0,1,3,3.79c.38,2.42-2.28,3-4.22,2.87a29.76,29.76,0,0,1-9.18-1.7c-3.12-1.22-5.12-5.65-.93-6.89A8.58,8.58,0,0,1,92.87,48Z"/><path class="cls-10" d="M72.26,163.3A22.21,22.21,0,0,1,78.32,148c5.78-6.08,14.37-8.32,22.25-11.18a114.57,114.57,0,0,0,30.74-16.91,67.17,67.17,0,0,1,14.75,9.18,144.17,144.17,0,0,1-31,21"/><path class="cls-10" d="M5.8,131.75a41.75,41.75,0,0,1,10.57-6.68,45.23,45.23,0,0,0,14,9.18c9.49,4,20.23,4.76,29.52,9.12a21,21,0,0,1,5.18,3.26,18.66,18.66,0,0,1,3.58,4.62c2.75,4.76,4.19,10.43,2.77,15.7"/><path class="cls-5" d="M60.55,80.39q-.4,0-.81,0L44.88,79.29A11.09,11.09,0,0,1,34.61,67.44l.63-8.69A11.12,11.12,0,0,1,47.09,48.48L62,49.55A11.09,11.09,0,0,1,72.22,61.4l-.63,8.7A11.11,11.11,0,0,1,60.55,80.39ZM46.29,50.45a9.12,9.12,0,0,0-9.06,8.44l-.62,8.7A9.07,9.07,0,0,0,45,77.3l14.86,1.07A9.12,9.12,0,0,0,69.6,70l.62-8.7a9.07,9.07,0,0,0-8.41-9.71L47,50.48Z"/><path class="cls-11" d="M4,128.17l58,30.58s8.86,5.06,22.79.27L148,123l-1.26,96.48L84.23,255.84s-9.64,7.51-23-.68l-57.78-24Z"/><path class="cls-5" d="M107.64,84.9l-.8,0L92,83.8A11.09,11.09,0,0,1,81.71,72l.63-8.69A11.11,11.11,0,0,1,94.19,53l14.86,1.07a11.07,11.07,0,0,1,10.26,11.85l-.62,8.7A11.12,11.12,0,0,1,107.64,84.9ZM93.38,55a9.12,9.12,0,0,0-9,8.44l-.62,8.69a9.1,9.1,0,0,0,8.41,9.72L107,82.88a9.11,9.11,0,0,0,9.72-8.42l.62-8.69a9.09,9.09,0,0,0-8.41-9.72L94.05,55Z"/><path class="cls-5" d="M76.88,62.32c-3.11-.1-5.56,2.15-6.66,3.38a3.77,3.77,0,0,1-.09,1.16l1.08.77s2.41-3.31,5.44-3.31h.15c2,.08,3.85,1.57,5.6,4.45l1.71-1C82,64.24,79.55,62.43,76.88,62.32Z"/><path class="cls-5" d="M133.49,74.68c-5.31-2.68-13.83-7-15.06-7.75a4,4,0,0,1-.49,2c1.93,1.07,6.83,3.58,14.65,7.53a1,1,0,0,0,.45.1,1,1,0,0,0,.45-1.89Z"/><path class="cls-2" d="M103.86,14.26a58.35,58.35,0,0,0,1.6,30.26,35.69,35.69,0,0,0,7.42,13.37,20.23,20.23,0,0,0,13.45,6.72,3.43,3.43,0,0,0,2.19-.43,3.76,3.76,0,0,0,1.21-2.55c1.48-8.17,1.5-16.84-1.74-24.48a50.65,50.65,0,0,0-6.89-11C116,19.6,109.48,13,101.22,12.7"/><path class="cls-2" d="M104,10.69c.66,5.44-1.81,10.88-5.42,15s-8.29,7.14-12.9,10.1c-7,4.5-14.1,9-21.81,12.18S47.68,52.91,39.43,51.7q2-9.91,4.86-19.65c1.55-5.34,3.44-10.88,7.53-14.64s10.12-5.24,15.78-6a114.37,114.37,0,0,1,36.32.69"/><g class="cls-8"><path class="cls-3" d="M80.58,69.85a13.34,13.34,0,0,0-3.89-1.17,4.62,4.62,0,0,0-3.75,1.2c-1.75,1.85-1.42,5.29.19,7.1,1,1.13,4,3.46,5.68,3.2,2-.32,3.13-4.81,3.58-6.7.39-1.66.5-3.67-.77-4.82"/></g><path class="cls-12" d="M84,159.26C70.5,163.63,62,158.75,62,158.75l-1-.51v96.81l.28.11C73.44,262.64,82.53,257,84,256Z"/><rect class="cls-5" x="64.31" y="169.08" width="15.67" height="6.75"/><rect class="cls-5" x="64.31" y="242.44" width="15.67" height="8.42"/><path class="cls-13" d="M78.15,228.31c0,4.34-2.84,7.85-6.35,7.85s-6.36-3.51-6.36-7.85,2.85-7.85,6.36-7.85S78.15,224,78.15,228.31Z"/><path class="cls-14" d="M89.25,247.1v-.52l-1.36-83.76.16-.08,56.29-31.35-1.75,84.29-.14.09Zm-.76-83.93,1.34,82.89L142,215.33l1.72-82.91Z"/><path class="cls-14" d="M55.53,247.11,9.26,226.8v-.2L9.08,140l46.45,21.19ZM9.86,226.4l45.07,19.79V161.57L9.68,140.93Z"/><g class="cls-15"><path class="cls-11" d="M146.69,219.5l.53-41.09c-1.68-.18-3.36-.31-5-.36-21.78-.65-42.69,8.31-61.75,18.87-8.87,4.92-18.35,10.4-28.43,9.27a30.31,30.31,0,0,1-11-3.75c-14.14-7.77-23-23.08-26.23-38.89-2.06-10-2.14-20.2-1.26-30.39l-9.46-5-.53,103,57.78,24c13.34,8.19,23,.68,23,.68Z"/></g><path class="cls-3" d="M142.14,159.73c-1.28-1.56-2.58-3.1-3.74-4.68-.63-.86-3.75-5.9-4.72-4.41s1.45,5.51,2.06,6.67c1.4,2.63,3.21,5,4.66,7.62a80.08,80.08,0,0,0-9.07-5.63c-.42-.21-7.24-3.36-7.15-1.87.19,3,3,4.23,5.12,5.73l3.78,2.62c.65.46,2.71,2.45,3.46,2.41-3.1.17-6-1-9-1.88-1-.29-7.56-2.36-6.43.5a3.42,3.42,0,0,0,2,1.58L134.27,173l-9.3,2.42a4.13,4.13,0,0,0-1.92.88,1.42,1.42,0,0,0-.22,1.91,2,2,0,0,0,1.46.45,25.74,25.74,0,0,0,5.87-.5c1.6-.32,3.37-.77,4.8,0a5.63,5.63,0,0,1,1.88,2.08c2.16,3.53,4.65,8.94,8.25,11.27,4.25,2.75,6.28-11.31,6.1-13.76C150.67,170.85,146.4,164.91,142.14,159.73Z"/><path class="cls-3" d="M9.06,165.24c1.28-1.56,2.58-3.1,3.74-4.68.64-.86,3.75-5.9,4.72-4.41s-1.44,5.51-2.06,6.67c-1.4,2.63-3.21,5-4.66,7.62a79.32,79.32,0,0,1,9.08-5.63c.41-.21,7.23-3.36,7.14-1.87-.19,3-3,4.23-5.12,5.73l-3.77,2.62c-.66.46-2.72,2.45-3.47,2.41,3.11.17,6-1,9-1.88,1-.29,7.56-2.36,6.43.5a3.42,3.42,0,0,1-2,1.58l-11.08,4.58,9.3,2.42a4.13,4.13,0,0,1,1.92.88,1.42,1.42,0,0,1,.22,1.91,2,2,0,0,1-1.45.45,25.78,25.78,0,0,1-5.88-.5c-1.6-.32-3.37-.77-4.8,0a5.72,5.72,0,0,0-1.88,2.08C12.2,189.29,9.71,194.7,6.11,197,1.86,199.78-.17,185.72,0,183.27.53,176.36,4.81,170.42,9.06,165.24Z"/></g></g></g></svg>