<svg xmlns="http://www.w3.org/2000/svg" viewBox="0 0 57.19 55.37"><defs><style>.cls-1{fill:#b3b3b3;}</style></defs><title>Ativo 1</title><g id="Camada_2" data-name="Camada 2"><g id="Camada_2-2" data-name="Camada 2"><path class="cls-1" d="M56.47,27a2.72,2.72,0,0,0-.22-3.9L30.69.75A3.16,3.16,0,0,0,26.54.8L.89,24.3a2.71,2.71,0,0,0-.12,3.9l.64.67a2.8,2.8,0,0,0,3.85.29l1.91-1.71V52.58A2.79,2.79,0,0,0,10,55.37H20a2.79,2.79,0,0,0,2.79-2.79V35H35.5V52.58a2.63,2.63,0,0,0,2.62,2.78h10.6a2.78,2.78,0,0,0,2.79-2.79V27.8s.52.47,1.18,1,2,.11,3.06-1Z"/></g></g></svg>