<svg xmlns="http://www.w3.org/2000/svg" viewBox="0 0 185.9 225.09"><defs><style>.cls-1{fill:#f2c2c2;}.cls-2{fill:#fff;}.cls-3{font-size:27px;fill:#333;font-family:CoolveticaRg-Regular, Coolvetica;}.cls-4{letter-spacing:-0.06em;}.cls-5{letter-spacing:-0.07em;}</style></defs><title>Ativo 6</title><g id="Camada_2" data-name="Camada 2"><g id="Camada_1-2" data-name="Camada 1"><g id="Layer3_6_FILL" data-name="Layer3 6 FILL"><path class="cls-1" d="M151.6,20.8c-1.94-1.62-3.93-3.15-5.95-4.6Q122.67,0,93,0q-33.7,0-58.7,20.8-3.6,3-7,6.45Q0,54.45,0,93q0,37.5,25.75,64.25c.47.5.95,1,1.45,1.5Q54.4,185.9,93,185.9q29.72,0,52.7-16.2a99.87,99.87,0,0,0,13-11l1.5-1.5Q185.9,130.46,185.9,93q0-38.51-27.25-65.7Q155.2,23.8,151.6,20.8Z"/></g><g id="Capa_1" data-name="Capa 1"><g id="Layer2_0_MEMBER_0_FILL" data-name="Layer2 0 MEMBER 0 FILL"><path class="cls-2" d="M152.55,93a58.24,58.24,0,0,0-10.9-34.39,30.7,30.7,0,0,0-2.93-3.79A59,59,0,0,0,93,33.35h-.37a57.71,57.71,0,0,0-25.45,5.87A59.56,59.56,0,0,0,47.06,54.77l-2.81,3.79a59.69,59.69,0,0,0,0,68.77l2.81,3.8a59.66,59.66,0,0,0,20.07,15.54,57.71,57.71,0,0,0,25.45,5.87H93a59,59,0,0,0,45.77-21.41,31.87,31.87,0,0,0,2.93-3.8A58.23,58.23,0,0,0,152.55,93m-5,4.4a54.05,54.05,0,0,1-9.79,27.05,62.8,62.8,0,0,0-13.1-6.49,93.23,93.23,0,0,0,3.19-20.56h19.7M137.74,61.5a53.78,53.78,0,0,1,9.91,31H128A90.54,90.54,0,0,0,124.64,68a56,56,0,0,0,13.1-6.48m-14.44,2Q118.41,49,110,40.94A53,53,0,0,1,134.8,57.7a58.22,58.22,0,0,1-11.5,5.75M90.5,73.37V92.46H62.6a89.72,89.72,0,0,1,2.94-23,92,92,0,0,0,25,3.92m4.9,19.09V73.37a96.67,96.67,0,0,0,24.72-3.8,89.74,89.74,0,0,1,2.93,22.89H95.4m0-24V38.37q7.34,1.22,13.58,8.32a53,53,0,0,1,9.79,18.23A84.28,84.28,0,0,1,95.4,68.47m-4.9-30.1v30.1a85.13,85.13,0,0,1-23.62-3.55q3.68-11.37,9.92-18.35,6.24-7.23,13.7-8.2m-15,2.69Q67,49.39,62.36,63.33A48.22,48.22,0,0,1,51.1,57.7,52.74,52.74,0,0,1,75.45,41.06M57.71,92.46H38.25a53.29,53.29,0,0,1,9.91-31,61.81,61.81,0,0,0,12.73,6.36,98.41,98.41,0,0,0-3.18,24.6m7.83,24a85.26,85.26,0,0,1-2.82-19.09H90.5v15.17a92.41,92.41,0,0,0-25,3.92M38.37,97.35H57.83A91.16,91.16,0,0,0,60.89,118a61.35,61.35,0,0,0-12.73,6.37,53.68,53.68,0,0,1-9.79-27.05m37.08,47.48A52.74,52.74,0,0,1,51.1,128.19a51.71,51.71,0,0,1,11.26-5.63q4.65,14,13.09,22.27m1.35-5.51q-6.24-7-9.92-18.35a93.57,93.57,0,0,1,23.62-3.55v30.1q-7.45-1-13.7-8.2m46.13-42a84.3,84.3,0,0,1-2.81,19,96.67,96.67,0,0,0-24.72-3.8V97.35h27.53M110,145q8.45-8.07,13.34-22.51a58.22,58.22,0,0,1,11.5,5.75A53,53,0,0,1,110,145m-1-5.75q-6.24,7.1-13.58,8.32v-30.1A90.44,90.44,0,0,1,118.77,121,53,53,0,0,1,109,139.2Z"/></g></g><text class="cls-3" transform="translate(20.29 218.8)">LING<tspan class="cls-4" x="52.3" y="0">U</tspan><tspan class="cls-5" x="66.55" y="0">A</tspan><tspan x="82.02" y="0">GENS</tspan></text></g></g></svg>