<svg xmlns="http://www.w3.org/2000/svg" viewBox="0 0 155.29 148.6"><defs><style>.cls-1{fill:#ffc200;}</style></defs><title>Ativo 1</title><g id="Camada_2" data-name="Camada 2"><g id="Camada_1-2" data-name="Camada 1"><g id="Camada_2-2" data-name="Camada 2"><g id="Camada_3" data-name="Camada 3"><path class="cls-1" d="M77.67,0c-2.14,0-6.22,1-9.36,7.34l-18,36.35L10.24,49.52c-7,1-9.2,4.6-9.87,6.64s-1,6.21,4.08,11.17l29,28.31-6.85,40c-.93,5.43.53,8.53,1.91,10.18a8,8,0,0,0,6.32,2.78,15,15,0,0,0,6.93-2l35.88-18.86,35.89,18.86a15,15,0,0,0,6.92,2,8,8,0,0,0,6.32-2.78c1.39-1.64,2.84-4.74,1.91-10.18l-6.85-39.95,29-28.31c5.1-5,4.74-9.13,4.08-11.17s-2.82-5.62-9.86-6.64L105,43.69,87,7.33C83.89,1,79.82,0,77.67,0Z"/></g></g></g></g></svg>