<svg xmlns="http://www.w3.org/2000/svg" viewBox="0 0 199.99 243.25"><defs><style>.cls-1{isolation:isolate;}.cls-2{fill:#87524d;}.cls-3{fill:#ee7668;}.cls-4{fill:#ffd38e;}.cls-5{fill:#f3debf;}.cls-6{fill:#5e8685;}.cls-7{fill:#4c706e;}.cls-8{fill:#68b5b1;}.cls-9{opacity:0.28;}.cls-12,.cls-13,.cls-9{mix-blend-mode:multiply;}.cls-10{fill:#aa4a43;}.cls-11{fill:#994039;}.cls-12{opacity:0.14;}.cls-13{opacity:0.19;}</style></defs><title>Ativo 2</title><g class="cls-1"><g id="Camada_2" data-name="Camada 2"><g id="OBJECTS"><path class="cls-2" d="M155.1,173.29c18.74,5.2,37.43-10.46,43.05-27.66,5.94-18.17-3.14-39.75-17.54-51.46C175.46,90,168.22,86.51,165,80.42c-2.91-5.55-3.38-13-3.57-19.09-.39-13,1.9-27.68-6.15-38.92A24.16,24.16,0,0,0,131,12.5c-8.94,1.57-16.34,7.78-24.87,10.88C96.55,26.87,86,26.31,75.91,27.45a19.69,19.69,0,0,0-8,2.23c-13.5,8.12-2.83,28.43-10.5,39.81-4.78,7.08-13.72,9.76-20.91,14.35a36.62,36.62,0,0,0-15.63,20.1c-2.45,8.32-1.28,17.79,3.73,24.86,2.82,4,6.83,7.33,8.23,12,1.07,3.6.41,7.49,1.13,11.18,1.09,5.65,5.24,10.2,9.64,13.91C52,173,62.2,178.24,73.13,179.06c23,1.75,45.24-16.07,67.65-10.59C145.68,169.67,150.25,171.94,155.1,173.29Z"/><path class="cls-3" d="M104.56,101.92l-1,25.3s-41.36-7.28-45.65,20.63,3.06,9,3.06,9l38.85,51.88,40.76,17.63,15.82-47.91L176,161.58s-3.14-32.14-32.47-33.57l-16.32-2-1.08-29.23Z"/><path class="cls-4" d="M158.05,164.57c-.27-2.2-.73-4.66-2.56-5.92a8.11,8.11,0,0,0-3.64-1.06c-4.64-.57-9.28-1.06-13.94-1.5A62.32,62.32,0,0,1,140,141.46a71.94,71.94,0,0,1,5.42-13.33c-.64,0-1.28-.1-1.94-.12l-6.43-.79a140.9,140.9,0,0,0-7.64,28.15q-19-1.44-38-1.36a3.8,3.8,0,0,0-2,.38,1.5,1.5,0,0,0-.24.2,124.25,124.25,0,0,1,3.76-28.21c-2.09,0-4.31.14-6.57.38-4,18.41-7.16,37.06-6.32,55.63l10.73,14.33h0l9,12,24.4,10.55c6.13.5,12.28.85,18.42.83l13.76-41.66,2.83-2.44Q158.77,170.28,158.05,164.57Z"/><path class="cls-5" d="M3.35,132.21l12.3-8.86s34.52,26.7,35.83,36.78S3.35,132.21,3.35,132.21Z"/><path class="cls-5" d="M42.47,157.92s3.23-11.1,23.94-11.74,50.16-12.37,50.16-12.37L123,145.38,56,167.65Z"/><path class="cls-6" d="M0,129.44l41.63,23.95A31.62,31.62,0,0,0,60.32,155l64.78-13.13-4,88.32L59.79,240.23s-15.16,5.68-22.25-3.51L.24,218.91Z"/><path class="cls-7" d="M61,154.82l-.72.15a31.62,31.62,0,0,1-18.69-1.58l-1.1-.64-3.29,83.83.3.14c5.62,7.29,16.31,5.22,20.5,4.06Z"/><path class="cls-8" d="M62.62,236.14l2.25-78.64.2,0L121.62,147l-4.17,79.59Zm2.74-78.22-2.22,77.62L117,226.17l4.12-78.56Z"/><polygon class="cls-8" points="38.85 195.48 59.67 193.92 59.84 189.21 39.04 190.76 38.85 195.48"/><polygon class="cls-8" points="38.23 211.15 59.13 209.59 59.5 198.87 38.66 200.43 38.23 211.15"/><path class="cls-4" d="M53.87,228.89c0,4.15-2.59,7.52-5.79,7.52S42.3,233,42.3,228.89s2.59-7.51,5.78-7.51S53.87,224.74,53.87,228.89Z"/><g class="cls-9"><path class="cls-3" d="M126.93,119.63l-.85-22.84-21.52,5.13-.77,18.8A95.36,95.36,0,0,0,126.93,119.63Z"/></g><path class="cls-4" d="M71,65.49h-.22L59.23,63.82a1.5,1.5,0,1,1,.42-3l11.59,1.66a1.5,1.5,0,0,1-.21,3Z"/><path class="cls-3" d="M115.91,8.36C100.58,6.89,80.12,10.09,71.79,24.8c-4.16,7.33-5.07,16-5.41,24.46-.54,13.11.11,26.41,3.88,39,3.31,11,12.43,18.42,23.8,19.9,9,1.18,17.8,2.08,26.83.2,22.07-4.6,25.35-28.51,26-47.39.35-11,3.08-20.6-1.77-31.16s-14.31-18.6-25.66-20.9A34.36,34.36,0,0,0,115.91,8.36Z"/><path class="cls-10" d="M82,67.85c0,3.08-1.08,5.57-2.41,5.57s-2.42-2.49-2.42-5.57,1.08-5.58,2.42-5.58S82,64.77,82,67.85Z"/><path class="cls-10" d="M118.4,67.85c0,3.08-1.08,5.57-2.42,5.57s-2.41-2.49-2.41-5.57,1.08-5.58,2.41-5.58S118.4,64.77,118.4,67.85Z"/><path class="cls-11" d="M80.45,51.94c1.9-.41,5.89-1.49,6.65-3.51a3.29,3.29,0,0,0-2.2-4.26c-3.32-1.07-7.76.55-10.85,1.79-1.54.63-3.38,1.9-4,3.53-.82,2.24.94,3.45,2.9,3.67C75.83,53.47,77.74,52.54,80.45,51.94Z"/><path class="cls-11" d="M117.31,51.94c-1.9-.41-5.89-1.49-6.66-3.51a3.3,3.3,0,0,1,2.21-4.26c3.32-1.07,7.76.55,10.85,1.79,1.54.63,3.38,1.9,4,3.53.82,2.24-.94,3.45-2.9,3.67C121.93,53.47,120,52.54,117.31,51.94Z"/><path class="cls-2" d="M136.6,34.76a37,37,0,0,0-3.52,21.51c.67,4.73,2.45,11.57,6.28,14.69,6.67,5.43,11.41-2.36,13.63-8,1.3-3.31,2.94-7.13,2-10.64-1.31-5-4.4-9.3-6.88-13.76"/><path class="cls-2" d="M72.19,6C62.61,10.26,57.25,17.83,55.7,28.19c-.86,5.76-.56,11.62-.24,17.43A3.53,3.53,0,0,0,56.21,48a3.37,3.37,0,0,0,2.08.7,58.93,58.93,0,0,0,12.17-.09,23.42,23.42,0,0,1,2-9.36,28,28,0,0,0,1,10.13,229.7,229.7,0,0,0,29.33-.58L104.09,40l2.71,8.95h21.67a57.7,57.7,0,0,0,1.59-11.33q1,5.67,2.06,11.33c0,.19,20.44.86,21.17-.95.61-1.56-1.64-5.68-1.75-7.5a53,53,0,0,0-1.66-11.26c-3.43-12.44-11.16-27.66-26.12-27.91C120,1.26,116.19.15,112.34,0c-4.07-.12-8.13.12-12.19.28C90.6.7,81,2.13,72.19,6Z"/><path class="cls-3" d="M139.18,75.29c.89-8.12,11.25-17.71,19.73-13.33,2.7,1.39,4.32,4.35,4.83,7.35,1,5.78-1.79,11.86-6.39,15.49A22.4,22.4,0,0,1,140.73,89c-.15,0-.34-.07-.37-.22s.29-.19.24,0"/><path class="cls-4" d="M91.39,70.67c0,.07,0,.14.09.22l.06.16,0-.11s0,0,0,0l-.3-.71c.06.17.14.33.21.49a3.46,3.46,0,0,1,.27-3.62,3.58,3.58,0,0,1,2.26-2v0c0-10.64-8.2-19.29-18.29-19.29S57.34,54.33,57.34,65s8.21,19.28,18.29,19.28a18.34,18.34,0,0,0,16.9-11.92A4.48,4.48,0,0,1,91.39,70.67ZM75.63,81.25c-8.43,0-15.29-7.31-15.29-16.28S67.2,48.68,75.63,48.68,90.92,56,90.92,65,84.06,81.25,75.63,81.25Z"/><path class="cls-4" d="M99.66,63.1a5,5,0,0,0-3.61-1.88,4.23,4.23,0,0,0-2.78,1.37L91,60.65a7.39,7.39,0,0,1,5-2.43A7.8,7.8,0,0,1,101.83,61Z"/><path class="cls-4" d="M158.91,63.46h-.14L134,61.21a1.49,1.49,0,0,1-1.36-1.63,1.51,1.51,0,0,1,1.63-1.36l24.74,2.24a1.5,1.5,0,0,1-.14,3Z"/><path class="cls-10" d="M98.25,64.5c-3.49-.51-7.75.66-7.79,4.87,0,3.78,4.4,6,7.64,5.32.63-.13.36-1.09-.27-1a5.29,5.29,0,0,1-6.37-4.36C91,65.84,95.51,65.1,98,65.47c.63.09.9-.87.26-1Z"/><path class="cls-10" d="M92.16,77.19c4.29,5.62,11.67,2.81,14.8-2.42a.5.5,0,0,0-.86-.51c-2.69,4.49-9.21,7.49-13.08,2.43-.38-.51-1.25,0-.86.5Z"/><path class="cls-10" d="M143.59,85.88A18.11,18.11,0,0,1,156,68.6c.61-.21.35-1.17-.26-1a19.12,19.12,0,0,0-13.17,18.24.5.5,0,0,0,1,0Z"/><path class="cls-10" d="M149.37,72.31c2.1,3.68.21,7.49-2.36,10.32-.44.48.27,1.19.7.71,2.89-3.18,4.85-7.47,2.52-11.54a.5.5,0,0,0-.86.51Z"/><g class="cls-12"><path class="cls-3" d="M142.92,86.26a24.19,24.19,0,0,1,9.53-16.53c1.41-1,3.44-1.91,4.8-.81a3.29,3.29,0,0,1,1,1.81c.85,3.4-1,6.84-3,9.74a15.06,15.06,0,0,1-3.85,4.25c-2,1.31-4.38,1.69-6.71,2a4.9,4.9,0,0,1-2,0"/></g><g class="cls-12"><path class="cls-3" d="M99,64.89a8.33,8.33,0,0,0-5.76,1.85c-1.5,1.42-2,4.06-.52,5.55a5.2,5.2,0,0,0,2.46,1.25,15.12,15.12,0,0,0,4.54.51c.31-1.52.54-3,.71-4.6s.21-3.33-.86-4.48"/></g><path class="cls-4" d="M117.54,84.25c-10.09,0-18.3-8.65-18.3-19.28s8.21-19.29,18.3-19.29S135.83,54.33,135.83,65,127.62,84.25,117.54,84.25Zm0-35.57c-8.44,0-15.3,7.31-15.3,16.29s6.86,16.28,15.3,16.28S132.83,73.94,132.83,65,126,48.68,117.54,48.68Z"/><g class="cls-13"><path class="cls-6" d="M122.07,209.17c-13.85-4.1-28.63-5.3-43.14-4.94-15.29.38-31.56,2.19-45-5.12-12-6.52-19.48-19.45-22.57-32.77C9,156,8.88,145.41,9.33,134.81L1.15,130.1,0,130.71l.24,88.2,37.3,17.81c7.09,9.19,22.25,3.51,22.25,3.51l61.33-10.07Z"/></g><path class="cls-3" d="M158.36,132.19c-1.44-1-6.73-2.38-8.35-1.7-5.06,2.1-10,11.11-6.53,37.82,4.52,35.17,7.72,41.75,7.72,41.75l-51.38-6.24A9.4,9.4,0,0,1,96,202.07a13.86,13.86,0,0,1-1.6-1.65c-.61-.7-1.2-1.4-1.76-2.14-1.78-2.31-4.3-7.23-7.4-7.87-2.44-.5-1.65,2.64-1,4a42.17,42.17,0,0,0,4.67,7.24,60.45,60.45,0,0,0-7.83-.84,28.76,28.76,0,0,0-4.15.09,8.35,8.35,0,0,0-3.64.81,1.91,1.91,0,0,0-.71.7,1,1,0,0,0,0,1,4.21,4.21,0,0,0,1.83,1.08,14.4,14.4,0,0,0,3.21.49c2.3.28,4.61.43,6.91.64a14.63,14.63,0,0,1-2.64.11c-2.87.21-5.55,1.3-8.39,1.73a5.77,5.77,0,0,0-3.38,1.5,1.41,1.41,0,0,0-.46,1.31,1.55,1.55,0,0,0,.87.92,5.55,5.55,0,0,0,2.43.42c4.5.07,8.92-.74,13.4-1.05-4.64,1.34-9.46,2.42-13.89,4.38a1.55,1.55,0,0,0-.76.54,1.05,1.05,0,0,0,.31,1.29,2.66,2.66,0,0,0,1.34.52c4.86.83,9.74-1,14.65-1.55-3.52,1.68-7.59,2.08-10.92,4.1-.38.23-.78.56-.77,1s.45.75.87.92c2.89,1.15,5.91-.65,8.84-.62a4.7,4.7,0,0,1,3.36,1.34A25.05,25.05,0,0,0,94,225.13a37.72,37.72,0,0,0,6.61,2.31c2.33.85,4.88,1.74,7.62,2.64l1,.33h0a273.29,273.29,0,0,0,65.91,12.83,9.39,9.39,0,0,0,10-8.92C186.2,211.23,188.5,153.25,158.36,132.19Z"/><path class="cls-8" d="M34,231.56,4,216v-.15l.41-79.34,32.42,18.6v.15Zm-29.5-15.9,29,15.09,2.79-75.4-31.41-18Z"/></g></g></g></svg>