<svg xmlns="http://www.w3.org/2000/svg" viewBox="0 0 273.27 360.01"><defs><style>.a{fill:#f2c63c;}</style></defs><title>Ativo 1</title><path class="a" d="M25,42Q4.87,46.31,4.65,67.34l-.11,5.29c.08-1,.18-2,.33-2.92C4.72,71.51,4.62,73,4.54,74L0,291.73a24.66,24.66,0,0,0,.65,6.79c.43,1.08.86,2.12,1.3,3.13a40.32,40.32,0,0,0,15,18.23q13.82,9.39,37.87,10.57h1.51a21.79,21.79,0,0,0,6.47-.1c1.22-.22,2.59-.47,4.1-.76l74.43-19.74V360l68.83-68.39,40-10.57q18.66-5.07,19.31-23.52l3.78-210.69q.32-15.53-13.06-14.88a20.87,20.87,0,0,0-5.39.75L60.75,78.56Q25.8,78,15.33,54.94L207.79,8.66a20.42,20.42,0,0,1,5.39-.76Q224.51,7.36,226,18.47l.21-3.56q.33-15.53-13-14.88a20.81,20.81,0,0,0-5.39.75Z"/></svg>