<svg xmlns="http://www.w3.org/2000/svg" viewBox="0 0 185.9 225.09"><defs><style>.cls-1{fill:#f2c53d;}.cls-2{fill:#fff;}.cls-3{font-size:27px;fill:#333;font-family:CoolveticaRg-Regular, Coolvetica;}.cls-4{letter-spacing:-0.06em;}.cls-5{letter-spacing:-0.07em;}.cls-6{letter-spacing:-0.06em;}</style></defs><title>Ativo 7</title><g id="Camada_2" data-name="Camada 2"><g id="Camada_1-2" data-name="Camada 1"><g id="Layer3_7_FILL" data-name="Layer3 7 FILL"><path class="cls-1" d="M158.65,27.25q-3.45-3.45-7.05-6.45Q126.6,0,93,0T34.25,20.8q-3.6,3-7,6.45Q0,54.45,0,93q0,37.5,25.75,64.25c.47.5.95,1,1.45,1.5q20.73,20.73,48.05,25.65A99.2,99.2,0,0,0,93,185.9q38.51,0,65.7-27.2l1.5-1.5a94.41,94.41,0,0,0,13.7-18q12-20.61,12.05-46.25Q185.9,54.45,158.65,27.25Z"/></g><g id="Camada_3" data-name="Camada 3"><g id="Layer1_0_FILL" data-name="Layer1 0 FILL"><path class="cls-2" d="M148.55,64.5h-6.07L122.51,77V59.49H48.44a10.6,10.6,0,0,0-7.83,3.17,10.76,10.76,0,0,0-3.26,7.91v47.77a10.78,10.78,0,0,0,3.26,7.92,10.64,10.64,0,0,0,7.83,3.17h74.07V112.1l20,12.49h6.07Z"/></g></g><text class="cls-3" transform="translate(17.66 218.8)"><tspan class="cls-4">A</tspan><tspan x="15.69" y="0">UDI</tspan><tspan class="cls-5" x="52.95" y="0">O</tspan><tspan x="69.17" y="0">VIS</tspan><tspan class="cls-6" x="105.43" y="0">U</tspan><tspan x="119.69" y="0">AL</tspan></text></g></g></svg>