<svg xmlns="http://www.w3.org/2000/svg" viewBox="0 0 185.9 225.09"><defs><style>.cls-1{fill:#262626;}.cls-2{fill:#fff;}.cls-3{font-size:27px;fill:#333;font-family:CoolveticaRg-Regular, Coolvetica;}</style></defs><title>Ativo 8</title><g id="Camada_2" data-name="Camada 2"><g id="Camada_1-2" data-name="Camada 1"><g id="Layer3_8_FILL" data-name="Layer3 8 FILL"><path class="cls-1" d="M185.9,93q0-38.51-27.25-65.7-3.45-3.45-7.05-6.45Q126.6,0,93,0T34.25,20.8q-3.6,3-7,6.45Q0,54.45,0,93q0,37.5,25.75,64.25c.47.5.95,1,1.45,1.5Q54.4,185.9,93,185.9t65.7-27.2l1.5-1.5Q185.9,130.46,185.9,93Z"/></g><g id="OBJECTS"><g id="Layer0_0_FILL" data-name="Layer0 0 FILL"><path class="cls-2" d="M94.61,88.43a7.23,7.23,0,0,1,4.51,2.79,7.56,7.56,0,0,1,1.82,5,7.76,7.76,0,0,1-2.36,5.68A7.41,7.41,0,0,1,93,104.3a7.76,7.76,0,0,1-5.68-2.36,8,8,0,0,1-.54-10.72,7.62,7.62,0,0,1,4.51-2.79v-53L53.55,108.91A37.76,37.76,0,0,1,68,123.06a38.69,38.69,0,0,1,5.26,19.63v7.82h39.34v-7.82a38.38,38.38,0,0,1,19.73-33.78L94.61,35.46Z"/></g></g><text class="cls-3" transform="translate(50.59 218.8)">DESIGN</text></g></g></svg>