<svg xmlns="http://www.w3.org/2000/svg" viewBox="0 0 126.66 166.91"><defs><style>.cls-1{fill:#b3b3b3;}</style></defs><title>Ativo 2</title><g id="Camada_2" data-name="Camada 2"><g id="Camada_1-2" data-name="Camada 1"><g id="Layer1_0_FILL" data-name="Layer1 0 FILL"><path class="cls-1" d="M28.16,36.41q-16.2-.24-21-10.95L96.31,4a9.71,9.71,0,0,1,2.5-.35q5.25-.24,6,4.9l.1-1.65q.15-7.2-6-6.9a9.71,9.71,0,0,0-2.5.35l-84.7,19.1q-9.36,2-9.45,11.75l-.05,2.45q0-.69.15-1.35c-.07.84-.12,1.5-.15,2L0,135.26a10.88,10.88,0,0,0,.3,3.15c.2.5.4,1,.6,1.45a18.62,18.62,0,0,0,7,8.45q6.39,4.35,17.55,4.9h.7a9.84,9.84,0,0,0,3-.05c.56-.1,1.2-.21,1.9-.35l34.5-9.15v23.25l31.9-31.7,18.55-4.9q8.64-2.34,9-10.9l1.75-97.7q.15-7.2-6-6.9a9.71,9.71,0,0,0-2.5.35Z"/></g></g></g></svg>