<svg xmlns="http://www.w3.org/2000/svg" viewBox="0 0 51.82 69.85"><defs><style>.cls-1{fill:#ff5d10;}</style></defs><title>Ativo 14</title><g id="Camada_2" data-name="Camada 2"><g id="Camada_3" data-name="Camada 3"><g id="Camada_2-2" data-name="Camada 2"><g id="Camada_1-2" data-name="Camada 1-2"><path class="cls-1" d="M41.33,47.42H10.48C4.72,47.42,0,43.75,0,39.26V8.16C0,3.67,4.72,0,10.48,0H41.33c5.76,0,10.48,3.67,10.48,8.16v31.1C51.81,43.75,47.09,47.42,41.33,47.42Z"/><path class="cls-1" d="M0,31.17V67.43a2.43,2.43,0,0,0,4.14,1.72L25.87,47.46Z"/><path class="cls-1" d="M51.82,31.17V67.43a2.42,2.42,0,0,1-2.44,2.42,2.39,2.39,0,0,1-1.71-.71L26,47.46Z"/></g></g></g></g></svg>