<svg xmlns="http://www.w3.org/2000/svg" viewBox="0 0 142 202.22"><defs><style>.cls-1{fill:#f2c63c;}.cls-2{fill:#939393;}.cls-3{fill:#494949;}.cls-4{fill:#fff;}.cls-5{fill:#ff5d10;}</style></defs><title>Ativo 12</title><g id="Camada_2" data-name="Camada 2"><g id="Camada_3" data-name="Camada 3"><rect class="cls-1" y="18" width="142" height="171" rx="8.1"/><path class="cls-2" d="M13.5,166H141.38a8,8,0,0,0,.62-3.1V8.1A8.1,8.1,0,0,0,133.9,0H8.1A8.1,8.1,0,0,0,0,8.1V162.9A8.1,8.1,0,0,0,8.1,171h5.4Z"/><path class="cls-3" d="M15,0H8.1A8.1,8.1,0,0,0,0,8.1V180.9A8.1,8.1,0,0,0,8.1,189H15Z"/><path class="cls-4" d="M136.5,166H13.5a8.5,8.5,0,0,0,0,17h123Z"/><polygon class="cls-5" points="18.63 173.22 18.63 202.22 24.63 197.22 29.63 202.22 29.63 173.22 18.63 173.22"/></g></g></svg>